<svg width="2126" height="290" viewBox="0 0 2126 290" fill="none" xmlns="http://www.w3.org/2000/svg">
<path d="M344 83.5673C476.421 44.3233 729.496 -12.2056 682.433 75.6303C623.604 185.425 571.384 285.96 692.348 217.173C813.311 148.386 1194.71 -90.3849 1123.32 38.591C1051.93 167.567 1087.63 367.314 1198.67 250.905C1309.72 134.496 1365.25 -108.243 1466.38 129.205C1547.29 319.163 1711.17 172.638 1783 75.6303" stroke="#2B2B2B"/>
<path d="M1 86.5673C196.456 47.3233 570.002 -9.20558 500.535 78.6303C413.702 188.425 336.625 288.96 515.17 220.173C693.715 151.386 1256.67 -87.3849 1151.3 41.591C1045.93 170.567 1098.61 370.314 1262.52 253.905C1426.43 137.496 1508.39 -105.243 1657.66 132.205C1777.08 322.163 2018.98 175.638 2125 78.6303" stroke="#2B2B2B"/>
<path d="M857 86.5673C942.213 47.3233 1105.07 -9.20558 1074.78 78.6303C1036.93 188.425 1003.32 288.96 1081.16 220.173C1159 151.386 1404.43 -87.3849 1358.49 41.591C1312.56 170.567 1335.53 370.314 1406.99 253.905C1478.45 137.496 1514.18 -105.243 1579.25 132.205C1631.32 322.163 1736.78 175.638 1783 78.6303" stroke="#2B2B2B"/>
</svg>
