<svg width="404" height="117" viewBox="0 0 404 117" fill="none" xmlns="http://www.w3.org/2000/svg">
<path d="M46.704 25.256C46.704 30.0773 45.7227 34.344 43.76 38.056C41.7973 41.7253 39.0667 44.6053 35.568 46.696C32.0693 48.744 28.016 49.768 23.408 49.768C18.8427 49.768 14.8107 48.744 11.312 46.696C7.856 44.6053 5.14667 41.7253 3.184 38.056C1.264 34.3867 0.304 30.1413 0.304 25.32C0.304 20.4987 1.28533 16.2533 3.248 12.584C5.21067 8.872 7.92 5.992 11.376 3.944C14.8747 1.85333 18.9067 0.807999 23.472 0.807999C28.08 0.807999 32.112 1.85333 35.568 3.944C39.0667 5.992 41.7973 8.85066 43.76 12.52C45.7227 16.1893 46.704 20.4347 46.704 25.256ZM35.76 25.256C35.76 22.2267 35.2693 19.6453 34.288 17.512C33.3067 15.336 31.8987 13.672 30.064 12.52C28.272 11.368 26.096 10.792 23.536 10.792C20.976 10.792 18.7787 11.368 16.944 12.52C15.1093 13.672 13.7013 15.336 12.72 17.512C11.7387 19.6453 11.248 22.2267 11.248 25.256C11.248 28.2853 11.7387 30.888 12.72 33.064C13.7013 35.24 15.1093 36.904 16.944 38.056C18.7787 39.208 20.976 39.784 23.536 39.784C26.096 39.784 28.272 39.208 30.064 38.056C31.8987 36.8613 33.3067 35.176 34.288 33C35.2693 30.824 35.76 28.2427 35.76 25.256ZM48.744 15.4C48.744 12.5413 49.4907 10.024 50.984 7.848C52.4773 5.62933 54.5253 3.90133 57.128 2.664C59.7733 1.384 62.7813 0.743999 66.152 0.743999C69.5653 0.743999 72.5093 1.34133 74.984 2.536C77.4587 3.73067 79.3573 5.416 80.68 7.592C82.0453 9.768 82.728 12.3493 82.728 15.336H72.424C72.424 13.672 71.848 12.3707 70.696 11.432C69.544 10.4507 67.9867 9.96 66.024 9.96C63.9333 9.96 62.248 10.408 60.968 11.304C59.7307 12.2 59.112 13.4373 59.112 15.016C59.112 16.4667 59.496 17.576 60.264 18.344C61.032 19.112 62.248 19.6667 63.912 20.008L71.016 21.48C75.24 22.3333 78.376 23.8267 80.424 25.96C82.472 28.0507 83.496 30.9733 83.496 34.728C83.496 37.7573 82.7493 40.424 81.256 42.728C79.7627 44.9893 77.6507 46.7387 74.92 47.976C72.232 49.2133 69.0747 49.832 65.448 49.832C61.9493 49.832 58.8773 49.2347 56.232 48.04C53.6293 46.8453 51.6027 45.16 50.152 42.984C48.744 40.7653 48.04 38.184 48.04 35.24H58.344C58.344 36.9467 58.9627 38.2693 60.2 39.208C61.4373 40.1467 63.208 40.616 65.512 40.616C67.8587 40.616 69.7147 40.1893 71.08 39.336C72.4453 38.44 73.128 37.2453 73.128 35.752C73.128 34.4293 72.7867 33.4053 72.104 32.68C71.464 31.9547 70.3547 31.4427 68.776 31.144L61.544 29.672C57.32 28.8187 54.12 27.1973 51.944 24.808C49.8107 22.4187 48.744 19.2827 48.744 15.4ZM108.288 49.768C103.552 49.768 99.456 48.7867 96 46.824C92.544 44.8187 89.8773 42.0027 88 38.376C86.1227 34.7067 85.184 30.376 85.184 25.384C85.184 20.4347 86.1653 16.1253 88.128 12.456C90.0907 8.78667 92.8427 5.94933 96.384 3.944C99.9253 1.896 104.043 0.871998 108.736 0.871998C112.704 0.871998 116.224 1.59733 119.296 3.048C122.411 4.456 124.949 6.46133 126.912 9.064C128.875 11.6667 130.091 14.7387 130.56 18.28H119.616C118.933 15.8907 117.611 14.056 115.648 12.776C113.728 11.496 111.339 10.856 108.48 10.856C105.92 10.856 103.701 11.432 101.824 12.584C99.9893 13.736 98.5813 15.4 97.6 17.576C96.6187 19.7093 96.128 22.2907 96.128 25.32C96.128 28.264 96.6187 30.824 97.6 33C98.624 35.176 100.053 36.8613 101.888 38.056C103.765 39.208 105.963 39.784 108.48 39.784C111.381 39.784 113.835 39.1227 115.84 37.8C117.888 36.4347 119.232 34.5787 119.872 32.232H130.624C130.069 35.7307 128.768 38.8027 126.72 41.448C124.715 44.0933 122.133 46.1413 118.976 47.592C115.819 49.0427 112.256 49.768 108.288 49.768ZM145.366 1.64V49H134.998V1.64H145.366ZM163.056 1.64V49H152.688V1.64H163.056ZM154.544 49V39.4H181.744V49H154.544ZM196.058 1.64V49H185.69V1.64H196.058ZM187.546 49V39.4H214.746V49H187.546ZM226.407 49H215.591L232.487 1.64H242.599L259.431 49H248.423L245.095 39.016H229.799L226.407 49ZM236.199 20.2L232.807 30.312H242.151L238.759 20.2C238.503 19.3893 238.247 18.5573 237.991 17.704C237.735 16.8507 237.564 16.1467 237.479 15.592C237.394 16.1467 237.223 16.8507 236.967 17.704C236.754 18.5147 236.498 19.3467 236.199 20.2ZM278.356 6.632V49H267.988V6.632H278.356ZM254.548 11.24V1.64H291.796V11.24H254.548ZM305.816 1.64V49H295.448V1.64H305.816ZM356.914 25.256C356.914 30.0773 355.933 34.344 353.97 38.056C352.007 41.7253 349.277 44.6053 345.778 46.696C342.279 48.744 338.226 49.768 333.618 49.768C329.053 49.768 325.021 48.744 321.522 46.696C318.066 44.6053 315.357 41.7253 313.394 38.056C311.474 34.3867 310.514 30.1413 310.514 25.32C310.514 20.4987 311.495 16.2533 313.458 12.584C315.421 8.872 318.13 5.992 321.586 3.944C325.085 1.85333 329.117 0.807999 333.682 0.807999C338.29 0.807999 342.322 1.85333 345.778 3.944C349.277 5.992 352.007 8.85066 353.97 12.52C355.933 16.1893 356.914 20.4347 356.914 25.256ZM345.97 25.256C345.97 22.2267 345.479 19.6453 344.498 17.512C343.517 15.336 342.109 13.672 340.274 12.52C338.482 11.368 336.306 10.792 333.746 10.792C331.186 10.792 328.989 11.368 327.154 12.52C325.319 13.672 323.911 15.336 322.93 17.512C321.949 19.6453 321.458 22.2267 321.458 25.256C321.458 28.2853 321.949 30.888 322.93 33.064C323.911 35.24 325.319 36.904 327.154 38.056C328.989 39.208 331.186 39.784 333.746 39.784C336.306 39.784 338.482 39.208 340.274 38.056C342.109 36.8613 343.517 35.176 344.498 33C345.479 30.824 345.97 28.2427 345.97 25.256ZM371.818 49H361.578V1.64H371.818L394.986 36.584H391.786V1.64H402.026V49H391.786L368.618 14.12H371.818V49Z" fill="white"/>
<path d="M13.296 116H2.928V68.64H21.232C26.992 68.64 31.4293 69.984 34.544 72.672C37.7013 75.3173 39.28 79.0933 39.28 84C39.28 87.072 38.6187 89.696 37.296 91.872C36.016 94.048 34.0533 95.8187 31.408 97.184L39.728 116H28.4L21.296 99.424H13.296V116ZM13.296 77.856V90.336H21.168C23.4293 90.336 25.1787 89.7813 26.416 88.672C27.696 87.5627 28.336 86.0053 28.336 84C28.336 81.9947 27.7173 80.48 26.48 79.456C25.2853 78.3893 23.536 77.856 21.232 77.856H13.296ZM92.4305 116H62.3505V68.64H92.4305V78.24H69.8385L72.7185 75.552V87.52H90.1905V96.608H72.7185V109.088L69.8385 106.4H92.4305V116ZM136.753 116.768C132.017 116.768 127.921 115.787 124.465 113.824C121.009 111.819 118.342 109.003 116.465 105.376C114.588 101.707 113.649 97.376 113.649 92.384C113.649 87.4347 114.63 83.1253 116.593 79.456C118.556 75.7867 121.308 72.9493 124.849 70.944C128.39 68.896 132.508 67.872 137.201 67.872C141.169 67.872 144.689 68.5973 147.761 70.048C150.876 71.456 153.414 73.4613 155.377 76.064C157.34 78.6667 158.556 81.7387 159.025 85.28H148.081C147.398 82.8907 146.076 81.056 144.113 79.776C142.193 78.496 139.804 77.856 136.945 77.856C134.385 77.856 132.166 78.432 130.289 79.584C128.454 80.736 127.046 82.4 126.065 84.576C125.084 86.7093 124.593 89.2907 124.593 92.32C124.593 95.264 125.084 97.824 126.065 100C127.089 102.176 128.518 103.861 130.353 105.056C132.23 106.208 134.428 106.784 136.945 106.784C139.846 106.784 142.3 106.123 144.305 104.8C146.353 103.435 147.697 101.579 148.337 99.232H159.089C158.534 102.731 157.233 105.803 155.185 108.448C153.18 111.093 150.598 113.141 147.441 114.592C144.284 116.043 140.721 116.768 136.753 116.768ZM225.159 92.256C225.159 97.0773 224.178 101.344 222.215 105.056C220.252 108.725 217.522 111.605 214.023 113.696C210.524 115.744 206.471 116.768 201.863 116.768C197.298 116.768 193.266 115.744 189.767 113.696C186.311 111.605 183.602 108.725 181.639 105.056C179.719 101.387 178.759 97.1413 178.759 92.32C178.759 87.4987 179.74 83.2533 181.703 79.584C183.666 75.872 186.375 72.992 189.831 70.944C193.33 68.8533 197.362 67.808 201.927 67.808C206.535 67.808 210.567 68.8533 214.023 70.944C217.522 72.992 220.252 75.8507 222.215 79.52C224.178 83.1893 225.159 87.4347 225.159 92.256ZM214.215 92.256C214.215 89.2267 213.724 86.6453 212.743 84.512C211.762 82.336 210.354 80.672 208.519 79.52C206.727 78.368 204.551 77.792 201.991 77.792C199.431 77.792 197.234 78.368 195.399 79.52C193.564 80.672 192.156 82.336 191.175 84.512C190.194 86.6453 189.703 89.2267 189.703 92.256C189.703 95.2853 190.194 97.888 191.175 100.064C192.156 102.24 193.564 103.904 195.399 105.056C197.234 106.208 199.431 106.784 201.991 106.784C204.551 106.784 206.727 106.208 208.519 105.056C210.354 103.861 211.762 102.176 212.743 100C213.724 97.824 214.215 95.2427 214.215 92.256ZM258.111 116H247.743V68.64H266.047C271.807 68.64 276.244 69.984 279.359 72.672C282.516 75.3173 284.095 79.0933 284.095 84C284.095 87.072 283.434 89.696 282.111 91.872C280.831 94.048 278.868 95.8187 276.223 97.184L284.543 116H273.215L266.111 99.424H258.111V116ZM258.111 77.856V90.336H265.983C268.244 90.336 269.994 89.7813 271.231 88.672C272.511 87.5627 273.151 86.0053 273.151 84C273.151 81.9947 272.532 80.48 271.295 79.456C270.1 78.3893 268.351 77.856 266.047 77.856H258.111ZM325.725 116H307.165V68.64H325.085C329.736 68.64 333.811 69.6427 337.309 71.648C340.851 73.6533 343.624 76.448 345.629 80.032C347.635 83.616 348.637 87.7547 348.637 92.448C348.637 97.056 347.656 101.131 345.693 104.672C343.773 108.213 341.085 110.987 337.629 112.992C334.216 114.997 330.248 116 325.725 116ZM317.533 73.376V111.392L312.605 106.4H324.701C327.432 106.4 329.757 105.845 331.677 104.736C333.64 103.627 335.133 102.027 336.157 99.936C337.181 97.8453 337.693 95.3493 337.693 92.448C337.693 89.4613 337.139 86.9227 336.029 84.832C334.963 82.6987 333.405 81.0773 331.357 79.968C329.352 78.816 326.92 78.24 324.061 78.24H312.605L317.533 73.376ZM368.589 82.4C368.589 79.5413 369.336 77.024 370.829 74.848C372.322 72.6293 374.37 70.9013 376.973 69.664C379.618 68.384 382.626 67.744 385.997 67.744C389.41 67.744 392.354 68.3413 394.829 69.536C397.304 70.7307 399.202 72.416 400.525 74.592C401.89 76.768 402.573 79.3493 402.573 82.336H392.269C392.269 80.672 391.693 79.3707 390.541 78.432C389.389 77.4507 387.832 76.96 385.869 76.96C383.778 76.96 382.093 77.408 380.813 78.304C379.576 79.2 378.957 80.4373 378.957 82.016C378.957 83.4667 379.341 84.576 380.109 85.344C380.877 86.112 382.093 86.6667 383.757 87.008L390.861 88.48C395.085 89.3333 398.221 90.8267 400.269 92.96C402.317 95.0507 403.341 97.9733 403.341 101.728C403.341 104.757 402.594 107.424 401.101 109.728C399.608 111.989 397.496 113.739 394.765 114.976C392.077 116.213 388.92 116.832 385.293 116.832C381.794 116.832 378.722 116.235 376.077 115.04C373.474 113.845 371.448 112.16 369.997 109.984C368.589 107.765 367.885 105.184 367.885 102.24H378.189C378.189 103.947 378.808 105.269 380.045 106.208C381.282 107.147 383.053 107.616 385.357 107.616C387.704 107.616 389.56 107.189 390.925 106.336C392.29 105.44 392.973 104.245 392.973 102.752C392.973 101.429 392.632 100.405 391.949 99.68C391.309 98.9547 390.2 98.4427 388.621 98.144L381.389 96.672C377.165 95.8187 373.965 94.1973 371.789 91.808C369.656 89.4187 368.589 86.2827 368.589 82.4Z" fill="#454545"/>
</svg>
