<svg width="2126" height="290" viewBox="0 0 2126 290" fill="none" xmlns="http://www.w3.org/2000/svg">
<path d="M344 83.5673C476.421 44.3233 729.496 -12.2056 682.433 75.6303C623.604 185.425 571.384 285.96 692.348 217.173C813.311 148.386 1194.71 -90.3849 1123.32 38.591C1051.93 167.567 1087.63 367.314 1198.67 250.905C1309.72 134.496 1365.25 -108.243 1466.38 129.205C1547.29 319.163 1711.17 172.638 1783 75.6303" stroke="#2B2B2B"/>
<path d="M1 86.5673C196.456 47.3233 570.002 -9.20558 500.535 78.6303C413.702 188.425 336.625 288.96 515.17 220.173C693.715 151.386 1256.67 -87.3849 1151.3 41.591C1045.93 170.567 1098.61 370.314 1262.52 253.905C1426.43 137.496 1508.39 -105.243 1657.66 132.205C1777.08 322.163 2018.98 175.638 2125 78.6303" stroke="#2B2B2B"/>
<path d="M256 203.433C341.213 242.677 504.068 299.206 473.782 211.37C435.926 101.575 402.322 1.03993 480.163 69.8271C558.003 138.614 803.433 377.385 757.495 248.409C711.556 119.433 734.525 -80.3139 805.985 36.095C877.445 152.504 913.175 395.243 978.255 157.795C1030.32 -32.1629 1133.78 105.493 1180 202.5" stroke="#2B2B2B"/>
<path d="M1180 202C1257.5 267.5 1430.07 299.206 1399.78 211.37C1361.93 101.575 1328.32 1.03993 1406.16 69.8271C1484 138.614 1729.43 377.385 1683.49 248.409C1637.56 119.433 1660.53 -80.3139 1731.99 36.095C1803.45 152.504 1839.18 395.243 1904.25 157.795C1956.32 -32.1629 2061.78 114.362 2108 211.37" stroke="#2B2B2B"/>
</svg>
